<svg width="14" height="16" viewBox="0 0 14 16" fill="none" xmlns="http://www.w3.org/2000/svg">
<path d="M4 1H2C1.44772 1 1 1.44772 1 2V14C1 14.5523 1.44772 15 2 15H4C4.55228 15 5 14.5523 5 14V2C5 1.44772 4.55228 1 4 1Z" stroke="black" stroke-width="2" stroke-linecap="round" stroke-linejoin="round"/>
<path d="M12 1H10C9.44772 1 9 1.44772 9 2V14C9 14.5523 9.44772 15 10 15H12C12.5523 15 13 14.5523 13 14V2C13 1.44772 12.5523 1 12 1Z" stroke="black" stroke-width="2" stroke-linecap="round" stroke-linejoin="round"/>
</svg>
